<?xml version="1.0" standalone="no"?>
<!DOCTYPE svg PUBLIC "-//W3C//DTD SVG 20010904//EN"
 "http://www.w3.org/TR/2001/REC-SVG-20010904/DTD/svg10.dtd">
<svg version="1.0" xmlns="http://www.w3.org/2000/svg"
 width="512.000000pt" height="512.000000pt" viewBox="0 0 512.000000 512.000000"
 preserveAspectRatio="xMidYMid meet">
<metadata>
Created by potrace 1.11, written by Peter Selinger 2001-2013
</metadata>
<g transform="translate(0.000000,512.000000) scale(0.100000,-0.100000)"
fill="#000000" stroke="none">
<path d="M1581 4468 c-17 -17 -31 -27 -31 -23 0 15 -40 -28 -41 -44 0 -11 -2
-12 -6 -3 -4 9 -10 7 -22 -7 -10 -12 -21 -17 -25 -14 -4 4 -4 -1 0 -10 3 -10
3 -17 -2 -16 -21 4 -35 -2 -29 -12 4 -6 14 -8 24 -5 12 5 11 2 -3 -9 -11 -8
-15 -15 -9 -15 20 0 9 -91 -13 -106 -10 -7 -23 -17 -29 -21 -5 -5 -34 -25 -63
-47 -44 -32 -53 -44 -59 -78 -7 -47 -38 -85 -56 -70 -7 5 -49 26 -95 46 l-83
37 -44 -17 c-25 -9 -45 -18 -45 -21 0 -2 16 -27 35 -56 l34 -52 -15 -51 -15
-52 -86 20 c-47 10 -87 17 -89 15 -4 -4 -7 -69 -5 -112 1 -22 9 -34 31 -47 17
-9 30 -24 30 -33 0 -8 8 -34 19 -58 39 -88 41 -97 31 -121 -7 -20 -18 -25 -69
-31 -55 -6 -60 -9 -70 -37 -6 -17 -11 -51 -11 -75 0 -33 -3 -42 -12 -37 -10 6
-10 4 -2 -7 17 -21 13 -45 -8 -46 -12 -1 -16 3 -12 10 5 8 3 8 -7 0 -8 -8 -41
-13 -86 -13 -57 0 -73 -3 -73 -14 0 -19 37 -172 44 -184 5 -9 69 -7 155 2 62
7 70 -6 55 -89 -12 -71 -10 -115 6 -115 5 0 12 -10 16 -22 3 -13 13 -30 20
-39 12 -13 10 -22 -16 -63 -17 -25 -30 -49 -30 -52 0 -3 -7 -12 -15 -20 -8 -9
-15 -11 -15 -6 0 13 -24 9 -43 -6 -8 -7 -19 -11 -23 -10 -12 4 -13 0 -23 -44
-9 -38 -5 -43 28 -39 7 2 10 -2 7 -7 -3 -5 4 -13 17 -17 12 -4 24 -8 27 -9 11
-5 66 -27 76 -30 10 -4 15 -18 29 -84 5 -19 20 -35 53 -54 l29 -18 32 70 c17
39 31 75 31 80 0 10 23 17 75 23 26 3 34 -3 67 -50 48 -68 70 -111 64 -122 -3
-4 4 -38 16 -75 16 -51 30 -74 57 -95 33 -27 36 -34 39 -86 3 -62 14 -78 62
-89 40 -9 53 -22 56 -57 2 -19 6 -46 10 -62 5 -21 1 -33 -20 -54 -23 -23 -31
-23 -27 0 2 12 -6 8 -20 -10 -10 -11 -10 -14 -1 -9 7 4 12 1 12 -8 0 -19 -11
-20 -30 -3 -12 10 -12 9 0 -6 12 -16 12 -20 0 -27 -8 -5 -17 -7 -21 -5 -7 5 7
-81 16 -94 5 -10 -49 -114 -69 -130 -11 -9 -10 -24 5 -89 11 -42 22 -88 25
-102 3 -14 7 -32 9 -40 2 -8 4 -20 4 -27 1 -6 17 -17 36 -23 19 -6 35 -15 35
-18 0 -4 10 -18 23 -32 16 -18 23 -38 23 -72 1 -39 9 -57 47 -109 37 -49 45
-67 40 -88 -10 -40 -9 -111 2 -119 6 -4 15 -16 21 -27 9 -16 20 -19 50 -17 22
2 46 10 55 18 10 9 19 11 27 4 9 -7 9 -7 3 1 -7 8 5 31 36 71 26 33 51 61 55
64 10 7 138 -84 139 -99 2 -36 6 -58 11 -62 3 -3 40 2 84 10 43 9 104 19 134
22 30 3 83 16 117 29 35 13 62 20 62 16 -1 -4 0 -9 1 -12 4 -10 11 -46 15 -75
2 -16 7 -41 10 -55 12 -49 12 -55 -4 -67 -14 -10 -13 -11 5 -7 12 3 25 1 28
-5 4 -6 31 -11 61 -11 30 0 64 -4 77 -9 17 -6 34 -4 63 10 21 10 44 19 51 19
6 0 27 36 45 81 40 97 58 112 114 99 44 -11 35 -18 165 128 l39 43 66 -12 c85
-15 97 -10 84 33 -25 88 -18 162 14 155 7 -1 11 3 10 10 -2 6 6 14 16 18 20 6
37 35 21 35 -6 0 -10 5 -10 11 0 5 4 8 8 5 4 -2 9 4 9 15 2 24 -10 25 -28 2
-13 -17 -13 -17 5 -3 19 15 19 15 0 -15 -10 -16 -13 -26 -6 -22 7 5 12 3 12
-3 0 -7 -7 -9 -16 -6 -10 4 -13 2 -8 -6 4 -6 3 -8 -3 -5 -5 3 -20 -1 -32 -10
-16 -10 -19 -18 -12 -23 9 -5 8 -10 -2 -18 -11 -9 -23 -1 -61 39 -25 27 -44
54 -41 60 4 5 11 7 16 4 5 -4 9 -1 9 5 0 6 12 16 28 22 15 7 35 18 45 26 9 9
17 11 17 7 0 -4 9 0 20 10 11 10 20 14 20 10 0 -5 6 -1 13 8 11 15 12 14 12
-12 1 -16 -3 -27 -9 -24 -5 3 -6 1 -2 -5 10 -16 27 -15 25 1 -7 54 0 65 57 87
31 11 64 20 73 19 21 -2 61 11 61 20 0 4 15 13 33 20 23 9 46 33 77 80 l43 68
53 2 53 2 46 -95 c25 -53 50 -98 54 -101 5 -2 53 42 108 100 63 65 110 106
126 109 14 2 53 14 86 26 59 22 59 22 65 69 7 47 5 61 -12 125 -6 20 -7 34 -3
32 4 -3 8 1 8 9 0 8 -4 12 -9 9 -4 -3 -8 4 -8 15 0 12 0 23 0 26 0 3 2 5 5 5
3 0 14 9 26 21 14 14 26 18 42 13 12 -5 33 -8 47 -7 23 0 171 31 176 36 4 3
13 78 16 124 2 32 -3 48 -20 66 -25 26 -27 33 -36 128 -6 61 -4 74 25 142 l31
76 -20 33 c-13 22 -18 43 -15 63 6 35 7 68 3 184 -3 105 -16 121 -94 121 -29
0 -68 5 -86 11 l-32 12 7 71 6 72 -86 49 c-48 27 -88 53 -90 59 -2 6 -6 33 -9
60 -3 27 -8 51 -10 54 -3 3 -49 7 -101 9 -85 4 -99 2 -122 -16 -19 -16 -40
-21 -83 -21 -57 0 -58 1 -78 38 -65 125 -88 155 -100 135 -15 -24 -61 -25
-129 -3 -37 13 -72 29 -76 36 -12 20 -20 18 -58 -16 -19 -16 -37 -30 -40 -30
-3 0 -17 -10 -30 -21 -13 -12 -35 -28 -48 -37 -22 -15 -25 -14 -55 20 -81 91
-86 100 -71 115 8 8 31 38 50 68 20 29 42 59 50 65 8 7 15 16 15 20 0 4 -43
23 -95 41 -54 19 -97 41 -100 49 -2 8 -7 40 -10 70 -7 61 -24 81 -64 74 -22
-4 -41 9 -116 80 -87 81 -90 83 -113 68 -22 -14 -29 -12 -138 43 -96 49 -114
62 -114 81 0 26 -116 194 -133 194 -7 0 -36 -7 -66 -15 l-53 -14 -35 34 c-20
19 -60 53 -89 76 -45 35 -58 40 -81 34 -16 -5 -58 -7 -94 -6 l-67 2 -1 -33
c-1 -18 -3 -44 -5 -58 -2 -14 -4 -41 -5 -62 -1 -34 -4 -37 -46 -52 -59 -19
-83 -11 -76 27 1 5 -2 6 -7 3 -4 -2 -7 25 -7 62 1 44 -3 75 -13 91 -13 22 -13
24 2 18 13 -5 15 -3 8 10 -15 26 -38 23 -71 -9z m50 9 c-6 -6 -4 -19 7 -35 13
-21 14 -24 2 -20 -8 3 -14 11 -12 18 2 11 0 11 -13 0 -14 -12 -18 -11 -26 1
-5 8 -9 10 -9 6 0 -5 13 -22 30 -39 16 -16 27 -22 24 -14 -3 9 -2 16 3 16 10
0 11 -95 1 -106 -4 -4 0 -12 8 -19 15 -11 15 -12 0 -12 -9 0 -16 5 -16 11 0 6
-5 4 -10 -4 -6 -10 -10 -11 -10 -2 0 6 -5 12 -11 12 -5 0 -7 -4 -4 -10 3 -5 1
-10 -5 -10 -7 0 -10 6 -7 13 2 6 11 12 19 11 17 -1 20 25 4 46 -10 13 -9 13 9
0 19 -14 20 -14 2 6 -9 11 -14 24 -10 29 5 4 1 5 -7 0 -12 -6 -13 -5 -2 6 15
16 16 29 1 29 -5 0 -8 -4 -4 -9 3 -5 0 -13 -6 -17 -8 -5 -9 -3 -4 7 7 12 6 12
-7 1 -9 -7 -20 -12 -24 -11 -16 2 -54 -13 -54 -23 0 -5 10 -4 23 2 22 11 22
11 2 -6 -17 -14 -18 -16 -2 -10 10 3 16 2 13 -2 -7 -12 24 -53 35 -47 5 3 6
-1 3 -10 -6 -14 -8 -14 -20 2 -13 17 -14 17 -7 -1 5 -15 3 -18 -10 -13 -9 4
-24 10 -34 14 -10 4 -14 3 -9 -5 3 -6 1 -14 -5 -18 -7 -4 -9 -3 -5 4 3 6 2 13
-4 17 -5 3 -10 0 -10 -7 0 -10 -2 -10 -9 1 -7 11 -8 46 -1 46 1 0 3 8 5 18 4
23 25 48 35 42 4 -3 13 2 20 10 7 8 9 15 5 15 -4 0 -2 7 5 15 7 8 16 12 21 9
5 -3 20 8 34 24 13 16 31 29 40 29 10 0 12 -4 6 -10z m-39 -115 c7 -7 8 -12 4
-12 -5 0 -3 -7 4 -15 15 -18 11 -24 -18 -30 -25 -4 -34 6 -37 44 -2 21 2 27
17 26 10 -1 24 -7 30 -13z m-831 -1739 c-12 -20 -14 -14 -5 12 4 9 9 14 11 11
3 -2 0 -13 -6 -23z m68 6 c-5 -10 -17 -16 -28 -14 -14 3 -19 -2 -18 -16 1 -21
12 -25 20 -9 3 6 4 5 3 -2 -5 -24 -31 -14 -31 12 0 20 5 25 23 24 14 -1 21 3
19 11 -3 6 1 12 8 12 10 0 11 -5 4 -18z m35 -5 c3 -8 2 -12 -4 -9 -6 3 -10 10
-10 16 0 14 7 11 14 -7z m-136 -28 c-7 -8 -15 -12 -17 -11 -5 6 10 25 20 25 5
0 4 -6 -3 -14z m122 -1 c0 -8 -4 -15 -8 -15 -5 0 -9 7 -9 15 0 8 4 15 9 15 4
0 8 -7 8 -15z m33 0 c-3 -9 -8 -14 -10 -11 -3 3 -2 9 2 15 9 16 15 13 8 -4z
m-130 -16 c-8 -8 -13 -7 -18 2 -5 8 -4 10 3 5 7 -4 12 -2 12 5 0 7 3 9 7 6 4
-4 2 -12 -4 -18z m162 -7 c-3 -3 -11 0 -18 7 -9 10 -8 11 6 5 10 -3 15 -9 12
-12z m-148 -9 c-4 -3 1 -11 10 -18 13 -9 13 -14 3 -20 -8 -5 -11 -4 -7 2 4 6
0 14 -9 17 -14 5 -11 26 3 26 4 0 3 -3 0 -7z m53 -3 c-8 -5 -19 -10 -25 -10
-5 0 -3 5 5 10 8 5 20 10 25 10 6 0 3 -5 -5 -10z m64 -2 c-3 -4 0 -8 7 -8 7 0
10 -3 6 -6 -3 -3 -16 1 -28 9 -22 16 -22 16 -1 14 11 0 18 -5 16 -9z m-22 -22
c-2 -5 2 -13 10 -18 10 -8 10 -9 -2 -5 -8 2 -14 10 -12 16 1 6 -7 11 -18 11
-11 0 -19 -5 -17 -11 1 -6 -5 -14 -13 -16 -13 -4 -13 -3 0 6 8 6 11 11 7 11
-5 0 -5 5 -2 11 8 12 51 8 47 -5z m2335 -1369 c0 -8 -6 -14 -14 -14 -17 0 -17
14 0 20 6 3 12 6 13 6 0 1 1 -5 1 -12z"/>
<path d="M1601 4466 c-8 -10 -9 -16 -1 -21 5 -3 10 -5 11 -3 4 18 7 38 4 38
-1 0 -8 -6 -14 -14z"/>
<path d="M1539 4423 c-1 -2 -2 -6 -3 -10 -1 -5 -5 -15 -10 -23 -7 -12 -6 -12
4 -3 7 6 18 9 25 7 6 -3 18 2 25 11 7 8 11 15 9 16 -16 3 -49 5 -50 2z m31
-17 c-7 -7 -13 -7 -20 0 -6 6 -3 10 10 10 13 0 16 -4 10 -10z"/>
<path d="M1614 4376 c1 -9 7 -21 13 -27 9 -9 11 -7 9 5 -1 9 -7 21 -13 27 -9
9 -11 7 -9 -5z"/>
<path d="M1481 4363 c-5 -10 -9 -21 -10 -25 -1 -5 -1 -9 -2 -10 -7 -25 -5 -36
10 -34 9 2 17 8 17 14 3 22 4 23 18 10 8 -8 10 -15 4 -19 -5 -4 -3 -9 5 -12
24 -9 12 32 -13 50 -12 8 -19 21 -16 29 8 20 -2 17 -13 -3z m10 -37 c-6 -7 -7
-17 -3 -21 4 -5 1 -5 -6 -1 -9 6 -10 11 -3 20 6 7 7 17 3 21 -4 5 -1 5 6 1 9
-6 10 -11 3 -20z"/>
<path d="M1626 4313 c-6 -14 -5 -15 5 -6 7 7 10 15 7 18 -3 3 -9 -2 -12 -12z"/>
<path d="M1574 4362 c3 -6 -2 -15 -11 -21 -11 -6 -13 -11 -5 -11 7 0 11 -4 8
-9 -5 -8 2 -8 33 -2 2 1 -2 7 -8 14 -6 8 -8 16 -5 19 3 3 0 9 -7 14 -7 4 -10
3 -5 -4z"/>
<path d="M655 3339 c-3 -4 2 -6 10 -5 21 3 28 13 10 13 -9 0 -18 -4 -20 -8z"/>
<path d="M4610 2740 c0 -5 5 -10 11 -10 5 0 7 5 4 10 -3 6 -8 10 -11 10 -2 0
-4 -4 -4 -10z"/>
<path d="M4590 2705 c0 -7 30 -13 34 -7 3 4 -4 9 -15 9 -10 1 -19 0 -19 -2z"/>
<path d="M4600 2660 c-12 -7 -10 -9 7 -7 12 0 19 5 17 9 -6 10 -6 10 -24 -2z"/>
<path d="M4545 2640 c-3 -6 1 -7 9 -4 18 7 21 14 7 14 -6 0 -13 -4 -16 -10z"/>
<path d="M4490 2580 c0 -5 5 -10 11 -10 5 0 7 5 4 10 -3 6 -8 10 -11 10 -2 0
-4 -4 -4 -10z"/>
<path d="M4575 2551 c-3 -5 -2 -12 3 -15 5 -3 9 1 9 9 0 17 -3 19 -12 6z"/>
<path d="M1340 1970 c0 -5 -6 -7 -14 -4 -8 3 -17 0 -22 -7 -4 -8 -3 -10 5 -5
6 4 17 3 24 -3 10 -7 13 -5 14 10 1 10 0 19 -3 19 -2 0 -4 -4 -4 -10z"/>
<path d="M1266 1962 c-3 -5 1 -9 9 -9 8 0 12 4 9 9 -3 4 -7 8 -9 8 -2 0 -6 -4
-9 -8z"/>
<path d="M1405 1959 c-3 -4 2 -6 10 -5 21 3 28 13 10 13 -9 0 -18 -4 -20 -8z"/>
<path d="M1414 1929 c-3 -6 -2 -15 3 -20 5 -5 9 -1 9 11 0 23 -2 24 -12 9z"/>
<path d="M1336 1913 c-6 -14 -5 -15 5 -6 7 7 10 15 7 18 -3 3 -9 -2 -12 -12z"/>
<path d="M1360 1916 c0 -8 4 -17 9 -20 5 -4 7 3 4 14 -6 23 -13 26 -13 6z"/>
<path d="M1250 1896 c0 -2 8 -10 18 -17 15 -13 16 -12 3 4 -13 16 -21 21 -21
13z"/>
<path d="M1277 1850 c15 -16 53 -24 53 -11 0 5 -8 8 -17 6 -10 -1 -25 2 -33 8
-12 9 -13 9 -3 -3z"/>
<path d="M1326 1805 c-11 -8 -15 -15 -9 -15 6 0 16 7 23 15 16 19 11 19 -14 0z"/>
<path d="M1334 1766 c1 -8 5 -18 8 -22 4 -3 5 1 4 10 -1 8 -5 18 -8 22 -4 3
-5 -1 -4 -10z"/>
<path d="M3189 1293 c-6 -7 -15 -11 -19 -8 -11 7 -31 -20 -22 -30 4 -4 -3 -4
-15 -1 -16 5 -27 1 -39 -13 -10 -11 -22 -17 -28 -13 -6 3 9 -17 33 -46 45 -53
57 -63 48 -38 -4 9 9 27 31 46 25 21 33 33 24 37 -10 4 -8 9 8 20 15 11 18 18
11 27 -7 8 -7 16 0 23 6 6 5 10 -6 10 -8 0 -20 -6 -26 -14z m18 0 c-4 -3 -2
-12 4 -19 8 -9 5 -16 -11 -24 -17 -9 -19 -14 -9 -26 6 -8 9 -14 5 -14 -3 0 -8
0 -11 0 -3 0 -16 -11 -28 -25 l-22 -26 -28 29 c-27 28 -27 29 -7 47 16 14 22
15 35 5 10 -9 15 -9 16 -1 1 6 2 17 3 24 0 6 6 12 13 12 7 0 18 6 25 13 6 6
14 12 17 12 2 0 1 -3 -2 -7z"/>
<path d="M3185 1270 c-4 -6 -12 -7 -18 -4 -7 4 -9 4 -5 -1 4 -4 3 -16 -3 -27
-8 -16 -13 -17 -25 -7 -12 10 -18 9 -30 -2 -13 -13 -11 -18 10 -38 l24 -23 17
26 c10 15 22 23 29 19 6 -4 5 1 -3 10 -15 19 -15 19 13 34 11 6 14 13 8 17 -6
3 -13 2 -17 -4z m-50 -50 c5 -8 12 -7 23 2 12 10 11 6 -3 -16 -18 -26 -20 -27
-32 -10 -7 10 -13 21 -13 26 0 12 18 10 25 -2z"/>
<path d="M3126 1207 c3 -10 9 -15 12 -12 3 3 0 11 -7 18 -10 9 -11 8 -5 -6z"/>
<path d="M2298 804 c-38 -20 -36 -28 2 -9 17 9 30 18 30 20 0 7 -1 6 -32 -11z"/>
<path d="M2230 780 c-9 -6 -10 -10 -3 -10 6 0 15 5 18 10 8 12 4 12 -15 0z"/>
<path d="M2331 764 c0 -11 3 -14 6 -6 3 7 2 16 -1 19 -3 4 -6 -2 -5 -13z"/>
<path d="M2250 760 c0 -5 5 -10 10 -10 6 0 10 5 10 10 0 6 -4 10 -10 10 -5 0
-10 -4 -10 -10z"/>
<path d="M2285 760 c-3 -5 -1 -10 4 -10 6 0 11 5 11 10 0 6 -2 10 -4 10 -3 0
-8 -4 -11 -10z"/>
<path d="M2219 748 c-6 -21 -5 -37 2 -32 5 3 6 10 3 16 -5 8 -1 9 10 5 10 -4
15 -3 11 3 -5 9 -24 14 -26 8z"/>
<path d="M2350 739 c0 -5 5 -7 10 -4 6 3 10 8 10 11 0 2 -4 4 -10 4 -5 0 -10
-5 -10 -11z"/>
<path d="M2273 718 c0 -16 4 -28 10 -28 6 0 7 3 4 7 -4 3 -1 13 6 21 8 11 8
14 0 9 -6 -4 -13 -1 -16 5 -2 7 -4 1 -4 -14z"/>
<path d="M2326 725 c-3 -8 -1 -15 4 -15 6 0 10 7 10 15 0 8 -2 15 -4 15 -2 0
-6 -7 -10 -15z"/>
<path d="M2235 710 c-3 -6 1 -7 9 -4 18 7 21 14 7 14 -6 0 -13 -4 -16 -10z"/>
<path d="M2222 687 c10 -8 15 -17 11 -20 -3 -4 -1 -7 5 -7 20 0 13 19 -10 30
-21 10 -21 10 -6 -3z"/>
<path d="M2312 676 c7 -8 15 -12 17 -11 5 6 -10 25 -20 25 -5 0 -4 -6 3 -14z"/>
<path d="M2360 670 c6 -11 13 -20 16 -20 2 0 0 9 -6 20 -6 11 -13 20 -16 20
-2 0 0 -9 6 -20z"/>
<path d="M2205 640 c-3 -6 1 -7 9 -4 18 7 21 14 7 14 -6 0 -13 -4 -16 -10z"/>
<path d="M2245 640 c-3 -6 1 -7 9 -4 18 7 21 14 7 14 -6 0 -13 -4 -16 -10z"/>
<path d="M2276 635 c-20 -15 -33 -50 -14 -39 5 3 7 9 4 12 -4 3 6 14 21 24 16
10 24 18 18 18 -5 -1 -19 -7 -29 -15z"/>
<path d="M2330 640 c0 -5 9 -8 20 -7 21 1 18 10 -5 13 -8 1 -15 -2 -15 -6z"/>
<path d="M2214 619 c-4 -7 -3 -9 4 -5 5 3 13 0 15 -6 4 -9 6 -10 6 -1 1 17
-16 25 -25 12z"/>
<path d="M2295 621 c-3 -5 0 -13 6 -17 7 -4 9 -3 5 4 -3 5 0 13 6 15 9 4 10 6
1 6 -6 1 -14 -3 -18 -8z"/>
</g>
</svg>
